<?xml version="1.0" standalone="no"?>
<!DOCTYPE svg PUBLIC "-//W3C//DTD SVG 20010904//EN"
 "http://www.w3.org/TR/2001/REC-SVG-20010904/DTD/svg10.dtd">
<svg version="1.0" xmlns="http://www.w3.org/2000/svg"
 width="1286.000000pt" height="734.000000pt" viewBox="0 0 1286.000000 734.000000"
 preserveAspectRatio="xMidYMid meet">
<metadata>
Created by potrace 1.16, written by Peter Selinger 2001-2019
</metadata>
<g transform="translate(0.000000,734.000000) scale(0.100000,-0.100000)"
fill="#000000" stroke="none">
<path d="M9310 7199 c-1122 -55 -2192 -224 -2920 -461 -442 -144 -731 -290
-996 -504 l-100 -81 -1545 163 c-849 89 -1566 165 -1594 169 -33 4 -47 3 -40
-4 6 -5 550 -269 1210 -586 660 -317 1203 -579 1207 -583 4 -4 -27 -55 -68
-112 -104 -144 -332 -485 -442 -662 -277 -445 -518 -869 -1007 -1773 -568
-1050 -800 -1447 -1012 -1732 -161 -217 -273 -328 -393 -392 -164 -87 -310 4
-435 273 -229 489 -387 1579 -456 3131 -6 138 -14 394 -17 570 l-7 320 -47
-310 c-148 -965 -208 -1622 -208 -2279 0 -566 42 -969 136 -1312 87 -321 192
-523 354 -685 143 -143 286 -210 488 -230 292 -29 761 103 1517 426 776 332
1904 903 3045 1543 116 65 127 69 150 57 157 -81 624 -19 1275 171 661 193
1673 579 2210 844 469 232 433 229 -2039 -180 -33 -5 -61 -9 -62 -7 -2 1 138
87 309 191 172 104 443 270 602 369 504 313 479 299 641 354 954 325 1525 542
1517 578 -5 19 -99 16 -243 -9 -125 -21 -597 -117 -655 -133 -11 -3 147 107
350 244 1461 983 2232 1594 2393 1898 22 42 27 63 27 130 0 94 -13 124 -84
195 -216 216 -832 361 -1741 410 -210 11 -1086 11 -1320 -1z m-579 -639 c132
-41 263 -174 318 -323 32 -85 40 -255 17 -347 -53 -209 -209 -365 -401 -401
-182 -34 -381 64 -489 238 -100 163 -107 411 -15 583 62 116 166 209 280 250
74 27 205 27 290 0z"/>
<path d="M8370 6015 l0 -195 235 0 235 0 0 195 0 195 -235 0 -235 0 0 -195z"/>
</g>
</svg>
